<svg width="1033" height="833" viewBox="0 0 1033 833" fill="none" xmlns="http://www.w3.org/2000/svg">
<rect width="1033" height="833" fill="white"/>
<g clip-path="url(#clip0_0_1)">
<path d="M51.9565 833H980.271C989.244 832.958 998.052 830.915 1005.84 827.07C1013.63 823.224 1020.13 817.706 1024.71 811.053C1029.29 804.399 1031.8 796.837 1031.99 789.1C1032.18 781.364 1030.04 773.716 1025.79 766.901L561.863 23.5729C557.417 16.4469 550.816 10.4926 542.761 6.34204C534.706 2.1915 525.497 0 516.114 0C506.73 0 497.522 2.1915 489.466 6.34204C481.411 10.4926 474.81 16.4469 470.364 23.5729L6.20664 766.901C1.94649 773.731 -0.187537 781.396 0.012927 789.149C0.213392 796.902 2.74142 804.478 7.35033 811.136C11.9592 817.795 18.4915 823.31 26.3095 827.142C34.1275 830.974 42.9639 832.992 51.9565 833V833ZM575.179 697.171H457.048V595.349H575.179V697.171ZM575.179 527.435H457.048V323.741H575.179V527.435Z" fill="#464353"/>
<path opacity="0.1" d="M51.9565 833H980.271C989.244 832.958 998.052 830.915 1005.84 827.07C1013.63 823.224 1020.13 817.706 1024.71 811.053C1029.29 804.399 1031.8 796.837 1031.99 789.1C1032.18 781.364 1030.04 773.716 1025.79 766.901L561.863 23.5729C557.417 16.4469 550.816 10.4926 542.761 6.34204C534.706 2.1915 525.497 0 516.114 0C506.73 0 497.522 2.1915 489.466 6.34204C481.411 10.4926 474.81 16.4469 470.364 23.5729L6.20664 766.901C1.94649 773.731 -0.187537 781.396 0.012927 789.149C0.213392 796.902 2.74142 804.478 7.35033 811.136C11.9592 817.795 18.4915 823.31 26.3095 827.142C34.1275 830.974 42.9639 832.992 51.9565 833V833ZM575.179 697.171H457.048V595.349H575.179V697.171ZM575.179 527.435H457.048V323.741H575.179V527.435Z" fill="black"/>
<path d="M53.8558 832H980.371C989.327 831.959 998.118 829.923 1005.89 826.091C1013.66 822.259 1020.15 816.761 1024.72 810.132C1029.3 803.502 1031.8 795.967 1031.99 788.258C1032.18 780.55 1030.05 772.93 1025.81 766.14L562.775 25.488C558.337 18.3877 551.749 12.4548 543.709 8.3192C535.669 4.18361 526.479 2 517.113 2C507.748 2 498.557 4.18361 490.518 8.3192C482.478 12.4548 475.89 18.3877 471.452 25.488L8.19461 766.14C3.94272 772.944 1.81283 780.582 2.0129 788.307C2.21298 796.032 4.7361 803.58 9.33608 810.215C13.9361 816.85 20.4557 822.345 28.2585 826.163C36.0613 829.981 44.8807 831.992 53.8558 832V832ZM576.064 696.661H458.163V595.205H576.064V696.661ZM576.064 527.535H458.163V324.575H576.064V527.535Z" fill="#464353"/>
</g>
<defs>
<clipPath id="clip0_0_1">
<rect width="1032.24" height="832.63" fill="white"/>
</clipPath>
</defs>
</svg>
